<svg width="411" height="181" viewBox="0 0 411 181" fill="none" xmlns="http://www.w3.org/2000/svg">
<path d="M366.575 128.625L365.831 127.81H364.728H2.5V2.5H408.5V130.31V174.553L366.575 128.625Z" stroke="#1900B2" stroke-width="5"/>
<path d="M52.32 79V45.4H64.32C67.424 45.4 70.144 46.072 72.48 47.416C74.848 48.76 76.672 50.696 77.952 53.224C79.264 55.752 79.92 58.744 79.92 62.2C79.92 65.656 79.264 68.648 77.952 71.176C76.672 73.704 74.848 75.64 72.48 76.984C70.144 78.328 67.424 79 64.32 79H52.32ZM63.84 74.68C66.24 74.68 68.272 74.216 69.936 73.288C71.632 72.328 72.912 70.92 73.776 69.064C74.672 67.176 75.12 64.888 75.12 62.2C75.12 58.136 74.144 55.048 72.192 52.936C70.24 50.792 67.456 49.72 63.84 49.72H57.12V74.68H63.84ZM85.9125 79V55H90.2325V60.28C90.7125 58.52 91.5765 57.16 92.8245 56.2C94.1045 55.24 95.5605 54.76 97.1925 54.76H99.3525V59.176H97.4325C95.2565 59.176 93.5445 59.864 92.2965 61.24C91.0805 62.584 90.4725 64.456 90.4725 66.856V79H85.9125ZM113.241 79.48C111.097 79.48 109.145 78.952 107.385 77.896C105.625 76.84 104.233 75.368 103.209 73.48C102.217 71.592 101.721 69.432 101.721 67C101.721 64.568 102.217 62.408 103.209 60.52C104.233 58.632 105.625 57.16 107.385 56.104C109.145 55.048 111.097 54.52 113.241 54.52C115.385 54.52 117.337 55.048 119.097 56.104C120.857 57.16 122.233 58.632 123.225 60.52C124.249 62.408 124.761 64.568 124.761 67C124.761 69.432 124.249 71.592 123.225 73.48C122.233 75.368 120.857 76.84 119.097 77.896C117.337 78.952 115.385 79.48 113.241 79.48ZM113.433 75.64C114.745 75.64 115.913 75.304 116.937 74.632C117.961 73.928 118.761 72.936 119.337 71.656C119.913 70.344 120.201 68.792 120.201 67C120.201 65.208 119.913 63.672 119.337 62.392C118.761 61.08 117.961 60.088 116.937 59.416C115.913 58.712 114.745 58.36 113.433 58.36H113.049C111.737 58.36 110.569 58.712 109.545 59.416C108.521 60.088 107.721 61.08 107.145 62.392C106.569 63.672 106.281 65.208 106.281 67C106.281 68.792 106.569 70.344 107.145 71.656C107.721 72.936 108.521 73.928 109.545 74.632C110.569 75.304 111.737 75.64 113.049 75.64H113.433ZM130.491 88.6V55H135.051V58.36C135.659 57.272 136.715 56.36 138.219 55.624C139.723 54.888 141.307 54.52 142.971 54.52C144.987 54.52 146.763 55.016 148.299 56.008C149.867 57 151.083 58.44 151.947 60.328C152.843 62.184 153.291 64.408 153.291 67C153.291 69.56 152.811 71.784 151.851 73.672C150.923 75.56 149.627 77 147.963 77.992C146.331 78.984 144.507 79.48 142.491 79.48C140.859 79.48 139.355 79.128 137.979 78.424C136.635 77.688 135.659 76.76 135.051 75.64V88.6H130.491ZM142.203 75.64C143.451 75.64 144.555 75.32 145.515 74.68C146.507 74.008 147.291 73.032 147.867 71.752C148.443 70.44 148.731 68.856 148.731 67C148.731 64.216 148.123 62.088 146.907 60.616C145.691 59.112 144.123 58.36 142.203 58.36H141.819C140.635 58.36 139.531 58.696 138.507 59.368C137.483 60.008 136.651 60.984 136.011 62.296C135.371 63.608 135.051 65.176 135.051 67C135.051 68.824 135.371 70.392 136.011 71.704C136.651 73.016 137.483 74.008 138.507 74.68C139.531 75.32 140.635 75.64 141.819 75.64H142.203ZM170.803 79V55H175.363V58.36C176.131 57.208 177.123 56.28 178.339 55.576C179.555 54.872 180.963 54.52 182.563 54.52C184.355 54.52 185.923 54.888 187.267 55.624C188.643 56.36 189.715 57.48 190.483 58.984C191.347 57.416 192.483 56.28 193.891 55.576C195.299 54.872 196.803 54.52 198.403 54.52C200.227 54.52 201.779 54.872 203.059 55.576C204.371 56.248 205.363 57.224 206.035 58.504C206.707 59.752 207.043 61.224 207.043 62.92V79H202.483V63.88C202.483 62.12 202.083 60.76 201.283 59.8C200.515 58.84 199.299 58.36 197.635 58.36H197.251C196.259 58.36 195.299 58.648 194.371 59.224C193.443 59.8 192.675 60.648 192.067 61.768C191.491 62.856 191.203 64.12 191.203 65.56V79H186.643V63.88C186.643 62.12 186.243 60.76 185.443 59.8C184.675 58.84 183.459 58.36 181.795 58.36H181.411C180.419 58.36 179.459 58.648 178.531 59.224C177.603 59.8 176.835 60.648 176.227 61.768C175.651 62.856 175.363 64.12 175.363 65.56V79H170.803ZM223.91 79.48C221.862 79.48 219.974 79.016 218.246 78.088C216.55 77.128 215.174 75.704 214.118 73.816C213.094 71.928 212.582 69.64 212.582 66.952C212.582 64.296 213.094 62.04 214.118 60.184C215.174 58.296 216.55 56.888 218.246 55.96C219.974 55 221.814 54.52 223.766 54.52C225.814 54.52 227.606 54.968 229.142 55.864C230.678 56.728 231.862 57.96 232.694 59.56C233.526 61.16 233.942 63 233.942 65.08C233.942 65.528 233.942 65.976 233.942 66.424C233.942 66.84 233.942 67.272 233.942 67.72H217.142C217.238 69.448 217.622 70.904 218.294 72.088C218.966 73.272 219.798 74.168 220.79 74.776C221.814 75.352 222.838 75.64 223.862 75.64H224.246C225.494 75.64 226.598 75.32 227.558 74.68C228.518 74.04 229.11 73.112 229.334 71.896H233.894C233.478 74.264 232.342 76.12 230.486 77.464C228.63 78.808 226.438 79.48 223.91 79.48ZM229.382 64.12C229.286 62.168 228.726 60.728 227.702 59.8C226.71 58.84 225.462 58.36 223.958 58.36H223.574C222.166 58.36 220.886 58.824 219.734 59.752C218.614 60.68 217.846 62.136 217.43 64.12H229.382ZM258.049 79.48C256.545 79.48 255.185 79.176 253.969 78.568C252.785 77.96 251.841 77.112 251.137 76.024C250.465 74.936 250.129 73.72 250.129 72.376C250.129 70.68 250.561 69.304 251.425 68.248C252.289 67.16 253.361 66.376 254.641 65.896C255.953 65.384 257.361 65.064 258.865 64.936L265.489 64.408V63.64C265.489 62.52 265.281 61.576 264.865 60.808C264.481 60.008 263.905 59.4 263.137 58.984C262.401 58.568 261.521 58.36 260.497 58.36H260.113C258.801 58.36 257.681 58.68 256.753 59.32C255.825 59.928 255.297 60.808 255.169 61.96H250.609C250.737 59.752 251.697 57.96 253.489 56.584C255.313 55.208 257.585 54.52 260.305 54.52C262.353 54.52 264.113 54.936 265.585 55.768C267.057 56.568 268.161 57.672 268.897 59.08C269.665 60.456 270.049 61.976 270.049 63.64V73.72C270.049 74.808 270.065 75.656 270.097 76.264C270.097 76.712 270.113 77.176 270.145 77.656C270.177 78.104 270.225 78.552 270.289 79H265.969C265.905 78.648 265.857 78.28 265.825 77.896C265.793 77.512 265.777 77.112 265.777 76.696C265.745 76.344 265.729 76.04 265.729 75.784C265.729 75.496 265.729 75.288 265.729 75.16C265.217 76.344 264.257 77.368 262.849 78.232C261.473 79.064 259.873 79.48 258.049 79.48ZM258.961 75.64C259.953 75.64 260.945 75.4 261.937 74.92C262.961 74.44 263.809 73.8 264.481 73C265.153 72.168 265.489 71.288 265.489 70.36V67.912L259.489 68.392C258.049 68.52 256.881 68.92 255.985 69.592C255.121 70.232 254.689 71.096 254.689 72.184C254.689 73.176 255.057 74.008 255.793 74.68C256.529 75.32 257.457 75.64 258.577 75.64H258.961ZM288.741 79V45.4H293.301V79H288.741ZM300.506 79V55H305.066V79H300.506ZM300.266 50.68V45.4H305.306V50.68H300.266ZM312.272 79V55H316.832V58.36C317.632 57.176 318.656 56.248 319.904 55.576C321.152 54.872 322.688 54.52 324.512 54.52C326.336 54.52 327.888 54.872 329.168 55.576C330.48 56.248 331.472 57.224 332.144 58.504C332.816 59.752 333.152 61.224 333.152 62.92V79H328.592V63.88C328.592 62.728 328.416 61.752 328.064 60.952C327.744 60.12 327.216 59.48 326.48 59.032C325.776 58.584 324.864 58.36 323.744 58.36H323.36C322.208 58.36 321.136 58.648 320.144 59.224C319.152 59.8 318.352 60.632 317.744 61.72C317.136 62.808 316.832 64.088 316.832 65.56V79H312.272ZM350.004 79.48C347.956 79.48 346.068 79.016 344.34 78.088C342.644 77.128 341.268 75.704 340.212 73.816C339.188 71.928 338.676 69.64 338.676 66.952C338.676 64.296 339.188 62.04 340.212 60.184C341.268 58.296 342.644 56.888 344.34 55.96C346.068 55 347.908 54.52 349.86 54.52C351.908 54.52 353.7 54.968 355.236 55.864C356.772 56.728 357.956 57.96 358.788 59.56C359.62 61.16 360.036 63 360.036 65.08C360.036 65.528 360.036 65.976 360.036 66.424C360.036 66.84 360.036 67.272 360.036 67.72H343.236C343.332 69.448 343.716 70.904 344.388 72.088C345.06 73.272 345.892 74.168 346.884 74.776C347.908 75.352 348.932 75.64 349.956 75.64H350.34C351.588 75.64 352.692 75.32 353.652 74.68C354.612 74.04 355.204 73.112 355.428 71.896H359.988C359.572 74.264 358.436 76.12 356.58 77.464C354.724 78.808 352.532 79.48 350.004 79.48ZM355.476 64.12C355.38 62.168 354.82 60.728 353.796 59.8C352.804 58.84 351.556 58.36 350.052 58.36H349.668C348.26 58.36 346.98 58.824 345.828 59.752C344.708 60.68 343.94 62.136 343.524 64.12H355.476Z" fill="#1900B3"/>
</svg>
